<?xml version="1.0" standalone="no"?>
<!DOCTYPE svg PUBLIC "-//W3C//DTD SVG 20010904//EN"
 "http://www.w3.org/TR/2001/REC-SVG-20010904/DTD/svg10.dtd">
<svg version="1.0" xmlns="http://www.w3.org/2000/svg"
 width="2123.000000pt" height="3314.000000pt" viewBox="0 0 2123.000000 3314.000000"
 preserveAspectRatio="xMidYMid meet">

<g transform="translate(0.000000,3314.000000) scale(0.100000,-0.100000)"
fill="#000000" stroke="none">
<path d="M10230 33134 c-604 -33 -928 -66 -1375 -140 -2894 -483 -5456 -2149
-7090 -4609 -970 -1461 -1556 -3121 -1719 -4875 -42 -447 -41 -250 -41 -6940
0 -6690 -1 -6493 41 -6940 298 -3197 2019 -6077 4694 -7855 1371 -912 2900
-1482 4525 -1689 490 -62 792 -80 1350 -80 674 0 1138 37 1760 140 3318 553
6198 2675 7719 5689 653 1294 1010 2616 1118 4140 19 268 19 12914 0 13190
-66 957 -226 1802 -502 2650 -965 2960 -3206 5367 -6089 6542 -1069 435 -2139
679 -3346 764 -148 10 -920 20 -1045 13z m-3848 -12505 c461 -57 851 -248
1159 -567 280 -290 449 -644 516 -1082 24 -160 24 -510 0 -670 -37 -238 -95
-429 -191 -625 -282 -576 -828 -953 -1491 -1030 -835 -97 -1569 227 -1967 868
-186 299 -283 641 -295 1042 -6 216 5 368 43 555 159 791 748 1359 1549 1495
205 35 467 40 677 14z m4500 0 c461 -57 851 -248 1159 -567 280 -290 449 -644
516 -1082 12 -83 17 -175 17 -335 0 -243 -13 -364 -64 -566 -65 -261 -168
-479 -332 -702 l-50 -68 114 -117 c130 -133 156 -181 145 -274 -15 -128 -141
-236 -261 -226 -80 7 -122 34 -253 161 l-122 119 -73 -46 c-469 -292 -1159
-370 -1733 -195 -511 156 -912 500 -1136 974 -127 270 -186 528 -196 860 -6
216 5 368 43 555 159 791 748 1359 1549 1495 205 35 467 40 677 14z m-9067
-68 c60 -34 109 -100 124 -171 8 -36 11 -527 11 -1615 l0 -1565 933 0 c880 0
934 -1 972 -19 101 -46 155 -129 155 -241 0 -112 -54 -195 -155 -241 -38 -18
-97 -19 -1136 -19 l-1095 0 -55 28 c-60 30 -112 91 -129 150 -6 25 -10 610
-10 1782 l0 1745 24 50 c66 140 226 192 361 116z m14233 5 c87 -48 122 -110
122 -214 0 -80 -23 -136 -71 -176 -77 -65 -2 -61 -1141 -64 l-1038 -3 0 -604
0 -605 743 0 c826 0 801 2 871 -66 57 -55 71 -89 71 -174 0 -85 -14 -119 -71
-174 -70 -68 -45 -66 -871 -66 l-743 0 0 -625 0 -625 1028 0 c1134 0 1085 3
1151 -62 52 -51 71 -98 71 -175 0 -82 -22 -135 -72 -179 -78 -69 7 -65 -1323
-62 l-1200 3 -47 28 c-53 31 -94 79 -114 134 -11 31 -13 352 -14 1784 0 1941
-5 1797 68 1872 42 44 75 63 129 76 22 5 544 9 1218 8 l1180 -2 53 -29z m2183
23 c614 -48 1131 -342 1442 -819 196 -301 298 -639 313 -1040 38 -961 -505
-1744 -1368 -1970 -242 -64 -263 -65 -938 -65 l-615 0 -47 28 c-53 31 -94 79
-114 134 -11 31 -13 352 -14 1784 0 1941 -5 1797 68 1872 42 44 75 63 129 76
54 13 982 13 1144 0z m-4035 -11540 c159 -22 343 -91 464 -174 57 -39 1740
-1014 1820 -1055 177 -89 343 -236 451 -398 291 -440 239 -1024 -125 -1401
-87 -90 -156 -144 -261 -204 -455 -260 -1830 -1057 -1898 -1100 -105 -66 -207
-110 -336 -145 -83 -21 -118 -25 -256 -26 -97 0 -184 4 -220 12 -354 76 -644
295 -801 604 -45 90 -78 191 -104 318 -20 103 -21 125 -20 1285 1 683 5 1220
11 1275 39 382 262 714 597 887 114 59 217 96 322 113 41 6 82 13 90 15 38 7
196 4 266 -6z m-6776 -164 c302 -66 581 -271 737 -540 22 -38 273 -473 558
-965 284 -492 537 -926 561 -964 192 -306 215 -722 59 -1054 -62 -131 -126
-223 -225 -323 -168 -170 -356 -268 -610 -319 -103 -20 -125 -21 -1285 -20
-683 1 -1220 5 -1275 11 -777 79 -1244 901 -911 1604 21 44 55 105 76 135 38
56 954 1634 1053 1815 81 149 118 201 212 299 107 112 254 210 393 265 88 34
143 48 287 75 51 9 297 -3 370 -19z"/>
<path d="M5865 20159 c-599 -82 -1072 -523 -1211 -1129 -69 -302 -49 -670 51
-950 41 -115 139 -297 209 -391 172 -228 433 -416 699 -503 295 -96 649 -98
947 -4 370 117 683 388 855 743 212 436 212 1004 0 1440 -195 401 -553 681
-993 776 -112 24 -436 35 -557 18z"/>
<path d="M10365 20159 c-599 -82 -1072 -523 -1211 -1129 -69 -302 -49 -670 51
-950 41 -115 139 -297 209 -391 172 -228 433 -416 699 -503 394 -128 862 -87
1205 107 l73 41 -255 255 c-161 163 -262 272 -277 301 -31 60 -32 149 -2 206
29 54 111 127 161 142 56 17 121 14 168 -7 27 -12 126 -105 304 -285 145 -146
267 -266 272 -266 5 0 33 37 62 83 147 227 227 472 246 761 53 801 -413 1458
-1148 1617 -112 24 -436 35 -557 18z"/>
<path d="M17410 18640 l0 -1492 413 4 c338 4 429 8 507 22 295 55 539 181 735
380 196 198 315 420 379 706 54 244 54 525 0 769 -124 555 -515 950 -1059
1072 -93 21 -131 22 -537 26 l-438 4 0 -1491z"/>
</g>
</svg>
