<?xml version="1.0" encoding="UTF-8" standalone="no"?>
<svg
   xmlns:dc="http://purl.org/dc/elements/1.1/"
   xmlns:cc="http://creativecommons.org/ns#"
   xmlns:rdf="http://www.w3.org/1999/02/22-rdf-syntax-ns#"
   xmlns:svg="http://www.w3.org/2000/svg"
   xmlns="http://www.w3.org/2000/svg"
   xmlns:sodipodi="http://sodipodi.sourceforge.net/DTD/sodipodi-0.dtd"
   xmlns:inkscape="http://www.inkscape.org/namespaces/inkscape"
   viewBox="0 0 729.65601 131.85989"
   height="131.85989"
   width="729.65601"
   xml:space="preserve"
   id="svg2"
   version="1.1"
   sodipodi:docname="logo.svg"
   inkscape:version="1.0.1 (c497b03c, 2020-09-10)"><sodipodi:namedview
     pagecolor="#ffffff"
     bordercolor="#666666"
     borderopacity="1"
     objecttolerance="10"
     gridtolerance="10"
     guidetolerance="10"
     inkscape:pageopacity="0"
     inkscape:pageshadow="2"
     inkscape:window-width="2212"
     inkscape:window-height="1045"
     id="namedview68"
     showgrid="false"
     fit-margin-top="0"
     fit-margin-left="0"
     fit-margin-right="0"
     fit-margin-bottom="0"
     inkscape:zoom="1.1154197"
     inkscape:cx="365.33334"
     inkscape:cy="65.999997"
     inkscape:window-x="0"
     inkscape:window-y="23"
     inkscape:window-maximized="0"
     inkscape:current-layer="svg2" /><metadata
     id="metadata8"><rdf:RDF><cc:Work
         rdf:about=""><dc:format>image/svg+xml</dc:format><dc:type
           rdf:resource="http://purl.org/dc/dcmitype/StillImage" /><dc:title></dc:title></cc:Work></rdf:RDF></metadata><defs
     id="defs6" /><g
     transform="matrix(1.3333333,0,0,-1.3333333,0,132)"
     id="g10"><g
       transform="scale(0.1)"
       id="g12"><path
         id="path14"
         style="fill:#092744;fill-opacity:1;fill-rule:nonzero;stroke:none"
         d="M 752.578,1.05078 H 273.238 C 122.578,1.05078 0,123.629 0,274.301 V 937.969 C 0,966.719 23.2813,990 52.0313,990 c 28.707,0 52.0277,-23.281 52.0277,-52.031 V 274.301 c 0,-93.281 75.902,-169.18 169.179,-169.18 h 479.34 c 28.711,0 52.031,-23.3202 52.031,-52.0312 0,-28.75 -23.32,-52.03902 -52.031,-52.03902" /><path
         id="path16"
         style="fill:#092744;fill-opacity:1;fill-rule:nonzero;stroke:none"
         d="m 1313.01,885.941 c -174.61,0 -316.682,-142.07 -316.682,-316.679 V 421.801 c 0,-174.61 142.072,-316.68 316.682,-316.68 h 221.21 c 174.61,0 316.68,142.07 316.68,316.68 v 147.461 c 0,174.609 -142.07,316.679 -316.68,316.679 z M 1534.22,1.05078 H 1313.01 C 1081.02,1.05078 892.27,189.77 892.27,421.801 V 569.262 C 892.27,801.25 1081.02,990 1313.01,990 h 221.21 c 231.99,0 420.74,-188.75 420.74,-420.738 V 421.801 C 1954.96,189.77 1766.21,1.05078 1534.22,1.05078" /><path
         id="path18"
         style="fill:#092744;fill-opacity:1;fill-rule:nonzero;stroke:none"
         d="m 4661.29,105.121 h 390.39 c 174.65,0 316.68,142.027 316.68,316.68 v 147.461 c 0,174.609 -142.03,316.679 -316.68,316.679 H 4661.29 Z M 5051.68,1.05078 h -442.42 c -28.75,0 -52.03,23.28902 -52.03,52.03902 V 937.969 c 0,28.75 23.28,52.031 52.03,52.031 h 442.42 c 231.99,0 420.74,-188.75 420.74,-420.738 V 421.801 C 5472.42,189.77 5283.67,1.05078 5051.68,1.05078" /><path
         id="path20"
         style="fill:#092744;fill-opacity:1;fill-rule:nonzero;stroke:none"
         d="M 4292.15,105.121 H 3938.2 c -174.61,0 -316.68,142.027 -316.68,316.68 v 21.679 h 486.25 c 28.75,0 52.07,23.321 52.07,52.032 0,28.75 -23.32,52.027 -52.07,52.027 h -486.25 v 21.723 c 0,174.609 142.07,316.679 316.68,316.679 h 353.95 c 28.75,0 52.03,23.278 52.03,52.028 0,28.75 -23.28,52.031 -52.03,52.031 H 3938.2 C 3706.21,990 3517.46,801.25 3517.46,569.262 V 421.801 C 3517.46,189.77 3706.21,1.05078 3938.2,1.05078 h 353.95 c 28.75,0 52.03,23.28902 52.03,52.03902 0,28.711 -23.28,52.0312 -52.03,52.0312" /><path
         id="path22"
         style="fill:#092744;fill-opacity:1;fill-rule:nonzero;stroke:none"
         d="m 2736.21,1.05078 h -110.62 c -232,0 -420.75,188.71922 -420.75,420.75022 V 569.262 C 2204.84,801.25 2393.59,990 2625.59,990 h 221.25 c 231.99,0 420.74,-188.75 420.74,-420.738 V 421.801 c 0,-121.723 -52.78,-237.43 -144.77,-317.461 -6.79,-5.9806 -14.8,-9.9298 -23.16,-11.8009 0,0 0,0 -0.04,0 -4.02,-0.8985 -8.2,-1.25 -12.27,-1.211 -12.85,0.2735 -25.58,5.2305 -35.46,14.9219 v 0.039 l -0.04,0.039 c -0.08,0.082 -0.16,0.152 -0.24,0.231 l -352.19,352.152 c -10.15,10.199 -15.23,23.48 -15.23,36.801 0,13.316 5.08,26.636 15.23,36.789 20.32,20.32 53.25,20.32 73.6,0 l 315.27,-315.27 c 48.24,56.879 75.24,129.258 75.24,204.77 v 147.461 c 0,174.609 -142.07,316.679 -316.68,316.679 h -221.25 c -174.61,0 -316.68,-142.07 -316.68,-316.679 V 421.801 c 0,-174.653 142.07,-316.68 316.68,-316.68 h 110.62 c 28.75,0 52.03,-23.3202 52.03,-52.0312 0,-28.75 -23.28,-52.03902 -52.03,-52.03902" /></g></g></svg>
